<?xml version="1.0" encoding="UTF-8" standalone="no"?><!DOCTYPE svg PUBLIC "-//W3C//DTD SVG 1.1//EN" "http://www.w3.org/Graphics/SVG/1.1/DTD/svg11.dtd"><svg width="100%" height="100%" viewBox="0 0 525 117" version="1.1" xmlns="http://www.w3.org/2000/svg" xmlns:xlink="http://www.w3.org/1999/xlink" xml:space="preserve" xmlns:serif="http://www.serif.com/" style="fill-rule:evenodd;clip-rule:evenodd;stroke-linejoin:round;stroke-miterlimit:2;"><g><path d="M27.877,77.07c6.306,0 10.847,-3.784 10.847,-9.208c0,-8.199 -13.749,-11.226 -24.218,-17.281c-7.442,-4.162 -14.506,-12.235 -14.506,-23.587c-0,-15.515 12.614,-26.994 27.877,-26.994c15.515,-0 28.128,12.614 28.128,28.129l-16.271,-0c-0.379,-6.433 -5.424,-11.731 -11.857,-11.731c-6.433,-0 -10.722,3.153 -10.722,9.46c-0,7.064 11.731,10.722 21.443,15.894c8.452,4.667 17.407,12.235 17.407,24.975c0,15.263 -12.613,26.741 -28.128,26.741c-15.263,0 -27.877,-12.613 -27.877,-28.002l16.272,-0c0.252,6.307 5.298,11.604 11.605,11.604Z" style="fill-rule:nonzero;"/><path d="M108.1,70.133l5.677,23.335l16.398,0l-22.831,-93.468l-22.201,0l-22.831,93.468l16.398,0l5.676,-23.335l23.714,-0Zm-3.658,-15.137l-16.271,0l8.072,-33.3l8.199,33.3Z" style="fill-rule:nonzero;"/><path d="M186.18,0l-16.398,0l-12.235,65.213l-12.236,-65.213l-16.398,0l17.533,93.468l22.201,0l17.533,-93.468Z" style="fill-rule:nonzero;"/><path d="M230.707,70.133l5.676,23.335l16.398,0l-22.831,-93.468l-22.2,0l-22.831,93.468l16.398,0l5.676,-23.335l23.714,-0Zm-3.658,-15.137l-16.272,0l8.073,-33.3l8.199,33.3Z" style="fill-rule:nonzero;"/><path d="M318.247,0l-16.272,0l-0,55.249l-23.336,-55.249l-16.398,0l0,93.468l16.272,0l0,-55.248l23.336,55.248l16.398,0l-0,-93.468Z" style="fill-rule:nonzero;"/><path d="M390.65,0l-16.272,0l0,55.249l-23.335,-55.249l-16.398,0l-0,93.468l16.272,0l-0,-55.248l23.335,55.248l16.398,0l0,-93.468Z" style="fill-rule:nonzero;"/><g transform="matrix(10.8369,0,0,10.8369,-17030.8,-3086.98)"><g transform="matrix(12,0,0,12,1608,295.52)"><path d="M0.149,-0.713c0.014,-0 0.026,0.005 0.036,0.015c0.01,0.009 0.015,0.022 0.015,0.036c0,0.014 -0.005,0.026 -0.015,0.036c-0.01,0.01 -0.022,0.015 -0.036,0.015c-0.014,0 -0.026,-0.005 -0.036,-0.015c-0.01,-0.01 -0.015,-0.022 -0.015,-0.036c0,-0.014 0.005,-0.027 0.015,-0.036c0.01,-0.01 0.022,-0.015 0.036,-0.015Zm-0.122,0.324l0,-0.027c0.055,-0.014 0.106,-0.035 0.155,-0.063l0.012,0.011c-0.006,0.069 -0.009,0.167 -0.009,0.293c-0,0.059 0.001,0.096 0.004,0.11c0.002,0.009 0.005,0.015 0.01,0.019c0.005,0.004 0.022,0.011 0.051,0.019c0.004,0.001 0.009,0.003 0.016,0.005l0,0.027c-0.043,-0.003 -0.078,-0.005 -0.105,-0.005c-0.016,-0 -0.061,0.002 -0.134,0.005l0,-0.027c0.044,-0.011 0.069,-0.021 0.075,-0.03c0.005,-0.008 0.008,-0.055 0.008,-0.14l-0.001,-0.104l0,-0.02c0,-0.036 -0.002,-0.058 -0.007,-0.066c-0.005,-0.007 -0.013,-0.011 -0.023,-0.011c-0.007,-0 -0.024,0.001 -0.052,0.004Z" style="fill:#dd812a;fill-rule:nonzero;"/></g><g transform="matrix(12,0,0,12,1610.77,293.418)"><path d="M0.366,-0.699l0.031,-0c0.044,0.113 0.098,0.241 0.162,0.384l0.114,0.249c0.005,0.008 0.011,0.015 0.017,0.019c0.004,0.003 0.028,0.011 0.072,0.024l-0,0.028c-0.06,-0.003 -0.103,-0.005 -0.131,-0.005c-0.029,0 -0.078,0.002 -0.147,0.005l0,-0.028c0.04,-0.009 0.063,-0.015 0.069,-0.02c0.007,-0.005 0.01,-0.011 0.01,-0.017c-0,-0.007 -0.003,-0.018 -0.01,-0.035l-0.049,-0.119c-0.069,-0.001 -0.12,-0.001 -0.151,-0.001l-0.135,0.001l-0.051,0.124c-0.008,0.02 -0.012,0.032 -0.012,0.037c-0,0.004 0.002,0.008 0.006,0.01c0.004,0.003 0.023,0.008 0.057,0.015c0.003,0.001 0.008,0.003 0.015,0.005l-0,0.028c-0.056,-0.003 -0.095,-0.005 -0.118,-0.005c-0.029,0 -0.066,0.002 -0.111,0.005l-0,-0.028c0.03,-0.007 0.05,-0.014 0.061,-0.022c0.008,-0.007 0.017,-0.017 0.025,-0.032c0.019,-0.032 0.066,-0.136 0.142,-0.311l0.134,-0.311Zm-0.129,0.436c0.046,0.002 0.078,0.002 0.097,0.002c0.006,0 0.056,-0 0.15,-0.002l-0.123,-0.293l-0.124,0.293Z" style="fill:#dd812a;fill-rule:nonzero;"/></g></g></g></svg>